<?xml version="1.0" standalone="no"?>
<!DOCTYPE svg PUBLIC "-//W3C//DTD SVG 20010904//EN"
 "http://www.w3.org/TR/2001/REC-SVG-20010904/DTD/svg10.dtd">
<svg version="1.0" xmlns="http://www.w3.org/2000/svg"
 width="500.000000pt" height="500.000000pt" viewBox="0 0 500.000000 500.000000"
 preserveAspectRatio="xMidYMid meet">

<g transform="translate(0.000000,500.000000) scale(0.100000,-0.100000)"
fill="#000000" stroke="none">
<path d="M2469 3926 c-18 -39 -4 -73 36 -86 46 -15 63 -45 34 -60 -14 -8 -29
-8 -49 -1 -31 10 -48 0 -27 -17 38 -32 111 -20 126 20 13 36 1 58 -45 81 -24
11 -44 27 -44 33 0 20 31 33 57 23 14 -5 25 -4 29 3 10 16 -16 28 -64 28 -35
0 -44 -4 -53 -24z"/>
<path d="M2262 3911 c-27 -24 -32 -36 -32 -74 0 -39 5 -49 37 -77 31 -28 42
-31 75 -27 41 6 71 24 62 38 -2 5 -24 6 -48 3 -36 -5 -47 -3 -65 15 -48 48
-11 125 57 119 28 -2 37 1 37 12 0 11 -13 16 -46 18 -39 3 -50 -1 -77 -27z"/>
<path d="M2675 3910 c-25 -27 -13 -60 35 -92 45 -31 49 -43 20 -58 -16 -8 -27
-7 -50 7 -35 20 -50 11 -26 -16 41 -45 120 -33 131 20 8 34 -4 53 -47 75 -30
16 -38 51 -14 60 8 3 24 0 35 -6 29 -15 50 -1 26 17 -28 20 -89 17 -110 -7z"/>
<path d="M1641 3876 c-9 -11 1 -35 53 -118 36 -56 79 -127 96 -155 16 -29 35
-53 40 -53 24 0 20 33 -7 77 -93 149 -166 263 -168 263 -1 0 -8 -6 -14 -14z"/>
<path d="M3258 3702 c-8 -9 -34 -46 -57 -81 -34 -50 -40 -65 -29 -72 21 -14
26 -11 42 19 25 48 64 77 104 77 20 0 37 5 37 10 0 6 -17 10 -38 10 -41 0 -41
-1 -27 25 13 25 -13 35 -32 12z"/>
<path d="M2032 3688 c2 -12 10 -23 18 -23 22 0 19 39 -3 43 -15 3 -18 -1 -15
-20z"/>
<path d="M2960 3681 c0 -15 6 -21 21 -21 14 0 19 5 17 17 -5 26 -38 29 -38 4z"/>
<path d="M1581 3629 c-12 -11 -24 -34 -28 -50 -4 -24 -11 -29 -34 -29 -33 0
-69 -40 -69 -78 0 -21 -2 -23 -15 -12 -11 9 -19 10 -26 3 -15 -15 -1 -38 65
-103 42 -41 59 -51 67 -43 9 9 5 21 -17 48 -49 62 -57 80 -51 108 4 14 17 29
29 33 18 5 32 -4 75 -50 43 -46 57 -55 68 -46 17 14 9 37 -16 51 -27 14 -51
65 -47 102 2 26 8 33 29 35 20 2 36 -8 73 -48 49 -53 56 -56 72 -40 15 15
-102 140 -131 140 -11 0 -31 -9 -44 -21z"/>
<path d="M3371 3564 c-36 -26 -54 -79 -41 -120 12 -35 56 -74 84 -74 22 0 20
27 -3 33 -23 6 -54 50 -49 71 2 13 17 9 82 -19 44 -19 82 -32 84 -30 3 3 6 25
6 51 1 40 -3 49 -32 75 -38 34 -93 39 -131 13z m117 -41 c11 -16 17 -63 7 -63
-2 0 -30 12 -62 26 l-58 25 24 20 c28 23 68 19 89 -8z"/>
<path d="M3525 3359 c-47 -42 -49 -96 -6 -140 16 -16 37 -29 47 -29 13 0 15
-3 7 -11 -12 -12 -7 -39 8 -39 17 0 154 101 154 113 0 7 -10 13 -21 15 -16 2
-20 8 -17 21 6 24 -21 77 -46 91 -38 20 -88 12 -126 -21z m129 -31 c37 -52 5
-118 -56 -118 -17 0 -40 7 -50 17 -24 22 -24 77 2 103 28 28 84 27 104 -2z"/>
<path d="M1231 3366 c-9 -11 -5 -18 24 -36 29 -18 35 -27 31 -45 -8 -30 4 -38
26 -18 17 15 20 15 41 -4 12 -11 41 -32 64 -46 34 -22 43 -24 53 -12 11 13 -3
26 -104 98 -16 11 -17 16 -6 36 8 15 9 26 2 33 -7 7 -14 3 -21 -11 -14 -26
-29 -26 -61 -1 -30 24 -34 24 -49 6z"/>
<path d="M1204 3155 c-11 -17 -15 -38 -11 -64 l5 -39 -96 44 c-73 34 -97 41
-104 32 -10 -17 -10 -28 1 -28 5 0 78 -34 164 -75 85 -41 159 -75 165 -75 5 0
12 7 16 15 4 11 -12 24 -55 45 -71 37 -90 66 -65 105 9 14 22 25 28 25 6 0 40
-14 76 -31 51 -24 67 -28 73 -17 14 22 12 24 -62 57 -87 38 -113 39 -135 6z"/>
<path d="M3684 3129 c-33 -17 -57 -65 -50 -104 8 -43 45 -90 59 -76 7 7 5 16
-6 29 -25 28 -22 87 5 106 52 37 118 8 118 -51 0 -14 6 -23 15 -23 30 0 18 63
-18 98 -35 34 -80 41 -123 21z"/>
<path d="M3848 2928 c-2 -18 -16 -25 -75 -41 -57 -16 -73 -24 -73 -39 0 -10 2
-18 4 -18 9 0 135 30 149 36 10 3 17 -4 21 -20 9 -38 34 -33 32 6 -1 29 2 33
37 41 38 9 42 14 29 34 -6 10 -17 10 -42 3 -46 -13 -50 -13 -50 5 0 24 -28 17
-32 -7z"/>
<path d="M1234 2755 c-4 -9 -2 -21 4 -27 15 -15 44 -1 40 19 -4 23 -36 29 -44
8z"/>
<path d="M3746 2592 c-9 -14 12 -35 28 -29 23 9 20 37 -3 37 -11 0 -22 -4 -25
-8z"/>
<path d="M1057 2543 c-4 -3 -7 -17 -7 -30 0 -20 -5 -23 -40 -23 -33 0 -40 -3
-40 -20 0 -17 7 -20 45 -20 38 0 45 -3 45 -20 0 -11 7 -20 15 -20 8 0 15 9 15
20 0 17 8 19 77 22 65 3 78 6 81 21 3 15 -6 17 -77 17 l-81 0 0 30 c0 28 -17
40 -33 23z"/>
<path d="M1123 2355 c-59 -25 -72 -100 -28 -154 24 -28 24 -30 8 -40 -13 -7
-15 -13 -7 -21 7 -7 32 -6 85 4 41 8 104 20 142 26 56 10 67 16 67 32 0 17 -5
19 -47 13 -27 -4 -56 -9 -66 -12 -16 -4 -17 -2 -8 15 25 46 7 108 -39 135 -34
20 -64 21 -107 2z m102 -50 c62 -61 -9 -150 -86 -109 -46 23 -52 72 -14 109
13 14 36 25 50 25 14 0 37 -11 50 -25z"/>
<path d="M3907 2340 c-4 -16 -11 -18 -43 -12 -72 13 -128 9 -132 -10 -3 -13 9
-17 65 -23 101 -10 105 -12 98 -46 -5 -22 -3 -29 9 -29 9 0 16 8 16 18 0 34
13 41 58 32 40 -7 43 -6 40 14 -2 16 -12 22 -43 26 -30 4 -39 9 -37 21 4 24
-25 32 -31 9z"/>
<path d="M3714 2173 c-31 -34 -39 -65 -25 -103 9 -29 9 -31 -9 -25 -15 5 -20
2 -20 -14 0 -17 15 -25 86 -47 64 -20 88 -24 97 -15 8 8 8 14 0 22 -7 7 -2 19
18 39 43 43 41 98 -6 139 -48 42 -105 43 -141 4z m116 -31 c29 -23 31 -89 4
-110 -22 -15 -86 -11 -109 8 -25 21 -19 76 11 99 33 26 65 27 94 3z"/>
<path d="M1223 2068 c-66 -24 -83 -35 -83 -50 0 -12 5 -18 13 -16 6 3 49 17
95 33 62 20 82 31 80 43 -5 24 -17 23 -105 -10z"/>
<path d="M1051 2011 c-19 -12 -6 -41 19 -41 16 0 21 5 18 22 -3 25 -17 32 -37
19z"/>
<path d="M3610 1936 c-10 -12 -1 -20 52 -48 118 -61 128 -63 128 -31 0 10
-146 93 -164 93 -2 0 -9 -7 -16 -14z"/>
<path d="M1183 1933 c-22 -8 -14 -23 22 -40 31 -15 33 -18 20 -33 -8 -8 -11
-21 -7 -27 5 -8 34 1 95 29 48 23 87 44 87 47 0 3 -4 12 -9 19 -7 11 -16 10
-49 -7 -52 -26 -105 -27 -129 -2 -10 10 -24 16 -30 14z"/>
<path d="M1410 1837 c0 -8 9 -22 20 -32 30 -27 27 -78 -6 -104 -15 -12 -37
-21 -49 -21 -25 0 -65 39 -65 63 0 9 -7 17 -16 17 -13 0 -15 -7 -10 -32 13
-65 78 -100 139 -74 35 14 67 58 67 91 0 25 -37 92 -55 99 -23 8 -25 8 -25 -7z"/>
<path d="M3553 1835 c-7 -19 -22 -8 127 -100 69 -43 138 -87 154 -98 23 -16
30 -17 37 -6 15 24 34 9 -177 142 -67 43 -124 77 -128 77 -4 0 -9 -7 -13 -15z"/>
<path d="M3847 1834 c-15 -15 -7 -45 11 -42 9 2 17 12 17 22 0 20 -16 31 -28
20z"/>
<path d="M3470 1712 c0 -4 14 -33 30 -64 36 -68 31 -71 -63 -39 l-55 19 23
-51 c66 -149 73 -159 83 -141 7 12 3 32 -14 71 -13 29 -24 58 -24 62 0 5 23 1
50 -10 28 -10 59 -19 70 -19 23 0 27 18 6 26 -15 6 -52 81 -44 90 3 3 32 -4
64 -15 45 -16 60 -18 66 -9 10 17 3 22 -72 47 -102 35 -120 40 -120 33z"/>
<path d="M1513 1655 c-26 -19 -29 -42 -9 -89 8 -18 10 -39 6 -46 -11 -18 -44
-8 -55 18 -11 25 -35 30 -35 6 0 -22 55 -74 79 -74 45 0 62 46 40 109 -9 26
-9 36 3 47 12 12 17 12 36 -2 12 -8 22 -24 22 -35 0 -10 7 -19 15 -19 22 0 18
35 -7 64 -30 33 -67 41 -95 21z"/>
<path d="M1655 1512 c-13 -20 -38 -56 -54 -78 -21 -30 -26 -45 -18 -53 7 -7
14 -7 23 0 10 8 15 5 19 -14 11 -42 51 -72 97 -72 34 0 45 6 75 39 31 33 35
43 30 77 -6 48 -49 88 -94 89 -25 0 -30 3 -26 19 3 11 -2 21 -11 24 -11 5 -24
-5 -41 -31z m118 -65 c31 -36 10 -99 -38 -111 -60 -15 -108 40 -84 97 21 51
85 58 122 14z"/>
<path d="M3273 1522 c-8 -5 7 -32 48 -85 33 -42 65 -77 70 -77 28 0 15 35 -36
99 -57 73 -62 76 -82 63z"/>
<path d="M3188 1459 c-16 -9 -16 -13 8 -48 34 -52 42 -106 19 -131 -31 -35
-51 -25 -92 45 -36 62 -55 77 -68 55 -6 -9 46 -110 73 -142 24 -28 66 -22 96
13 14 17 26 38 26 47 1 16 1 16 13 0 9 -11 18 -14 28 -8 16 10 9 25 -54 127
-27 43 -35 50 -49 42z"/>
<path d="M1915 1324 c-33 -25 -72 -55 -87 -66 -15 -12 -25 -25 -22 -30 11 -18
41 -6 82 32 24 22 47 40 52 40 6 0 10 -31 10 -69 0 -55 3 -70 16 -75 9 -4 19
-4 21 -2 3 3 1 52 -4 110 l-8 106 -60 -46z"/>
<path d="M2394 1324 c-12 -17 -21 -66 -29 -145 -11 -119 -11 -119 11 -119 20
0 21 6 28 106 4 62 13 119 22 136 25 48 -3 67 -32 22z"/>
<path d="M2905 1326 c-17 -7 -36 -20 -43 -29 -8 -9 -20 -13 -28 -10 -8 3 -20
3 -28 0 -11 -4 -1 -42 44 -177 32 -95 61 -174 64 -177 3 -3 12 -3 20 0 13 5
11 19 -14 93 -17 48 -30 91 -30 95 0 4 15 5 33 2 39 -6 91 17 107 46 23 44 6
120 -32 144 -37 24 -61 27 -93 13z m77 -53 c24 -22 24 -77 -2 -103 -44 -44
-120 -11 -120 52 0 17 7 40 17 50 20 23 80 24 105 1z"/>
<path d="M3425 1320 c-4 -7 -3 -16 3 -22 14 -14 45 -2 40 15 -6 16 -34 21 -43
7z"/>
<path d="M2109 1308 c0 -2 -11 -44 -23 -95 -20 -80 -21 -93 -8 -98 9 -3 19 0
24 7 7 10 11 10 21 -3 60 -77 177 -30 177 71 0 70 -50 108 -125 94 -27 -5 -35
-3 -33 7 2 7 -5 15 -14 17 -10 2 -18 2 -19 0z m131 -68 c30 -30 27 -83 -7
-110 -32 -25 -69 -20 -95 12 -56 65 41 159 102 98z"/>
<path d="M2570 1246 c-13 -17 -6 -36 15 -36 19 0 26 27 11 39 -10 8 -17 7 -26
-3z"/>
<path d="M2353 994 c-8 -21 13 -42 28 -27 13 13 5 43 -11 43 -6 0 -13 -7 -17
-16z"/>
</g>
</svg>
