<?xml version="1.0" standalone="no"?>
<!DOCTYPE svg PUBLIC "-//W3C//DTD SVG 20010904//EN"
 "http://www.w3.org/TR/2001/REC-SVG-20010904/DTD/svg10.dtd">
<svg version="1.0" xmlns="http://www.w3.org/2000/svg"
 width="500.000000pt" height="500.000000pt" viewBox="0 0 500.000000 500.000000"
 preserveAspectRatio="xMidYMid meet">

<g transform="translate(0.000000,500.000000) scale(0.100000,-0.100000)"
fill="#000000" stroke="none">
<path d="M2145 3929 c-61 -19 -95 -65 -95 -129 0 -50 31 -104 73 -127 63 -35
201 17 158 60 -7 7 -11 7 -11 1 0 -17 -76 -47 -103 -40 -68 17 -101 84 -73
151 16 37 74 72 103 61 10 -4 13 0 11 11 -4 21 -23 25 -63 12z"/>
<path d="M2483 3854 c-21 -21 -24 -32 -20 -61 3 -19 11 -41 17 -48 25 -30 110
-30 110 0 0 10 -9 12 -33 8 -22 -3 -37 0 -45 10 -10 12 -3 18 48 36 33 12 60
24 60 27 0 3 -7 16 -16 29 -23 36 -85 35 -121 -1z m93 -8 c21 -16 27 -11 -61
-46 -20 -8 -25 -7 -25 7 0 22 29 53 50 53 9 0 25 -6 36 -14z"/>
<path d="M2940 3850 c-6 -15 -21 -31 -33 -34 -18 -5 -19 -8 -7 -15 12 -9 13
-16 2 -53 -17 -57 -19 -77 -7 -76 6 0 19 24 31 52 17 41 25 51 42 49 26 -3 28
5 5 22 -13 10 -14 17 -5 43 14 42 -11 53 -28 12z"/>
<path d="M2372 3848 c-19 -19 -22 -20 -22 -5 0 16 -11 23 -22 12 -5 -5 4 -66
17 -122 3 -13 12 -23 19 -23 11 0 12 8 5 40 -10 43 -3 66 25 90 17 13 21 30 8
30 -4 0 -18 -10 -30 -22z"/>
<path d="M2686 3849 c-21 -17 -26 -29 -26 -64 0 -58 30 -81 91 -71 27 4 38 3
34 -4 -3 -5 1 -10 9 -10 9 0 18 10 21 23 21 95 23 113 13 122 -7 7 -12 6 -15
-3 -3 -9 -12 -7 -30 8 -33 26 -63 25 -97 -1z m98 -20 c14 -12 11 -66 -4 -83
-29 -36 -90 -5 -90 45 0 48 59 71 94 38z"/>
<path d="M3075 3820 c-7 -12 2 -30 16 -30 12 0 12 27 0 35 -5 3 -12 1 -16 -5z"/>
<path d="M3011 3694 c-28 -54 -32 -67 -20 -75 11 -6 22 7 46 57 30 60 34 84
15 84 -4 0 -22 -30 -41 -66z"/>
<path d="M3116 3673 c-4 -26 -9 -65 -12 -86 l-6 -37 71 36 c75 38 88 49 71 59
-6 4 -29 -5 -50 -19 -22 -14 -42 -26 -45 -26 -4 0 -5 25 -3 56 4 72 -17 85
-26 17z"/>
<path d="M1715 3701 c-3 -6 17 -34 45 -63 44 -46 48 -53 32 -61 -38 -21 -62
-51 -62 -80 0 -36 49 -87 83 -87 29 0 77 45 77 71 0 12 5 16 14 13 8 -3 17 -1
20 4 6 10 -180 212 -195 212 -4 0 -10 -4 -14 -9z m137 -158 c20 -18 24 -63 6
-81 -29 -29 -98 -1 -98 40 0 23 34 58 57 58 9 0 25 -7 35 -17z"/>
<path d="M1957 3563 c-12 -11 -8 -23 8 -23 8 0 15 7 15 15 0 16 -12 20 -23 8z"/>
<path d="M3240 3552 c-34 -27 -32 -88 4 -118 15 -13 31 -24 37 -24 17 0 9 22
-16 42 -24 19 -34 48 -16 48 5 0 33 -12 61 -26 43 -21 54 -24 61 -13 28 44
-17 109 -74 109 -19 0 -45 -8 -57 -18z m91 -12 c11 -6 19 -21 19 -35 0 -30 0
-30 -52 -4 -39 20 -41 22 -23 35 23 17 30 17 56 4z"/>
<path d="M1655 3418 c-67 -36 -57 -132 14 -151 28 -7 80 19 93 48 18 40 1 42
-31 4 -16 -19 -32 -31 -36 -27 -4 4 0 33 8 65 8 32 13 61 10 66 -6 10 -35 8
-58 -5z m34 -35 c0 -10 -6 -34 -13 -53 l-13 -34 -18 27 c-15 24 -16 31 -5 52
15 29 50 34 49 8z"/>
<path d="M3325 3370 c-4 -6 -3 -16 3 -22 6 -6 12 -6 17 2 4 6 3 16 -3 22 -6 6
-12 6 -17 -2z"/>
<path d="M3634 3316 c-3 -8 0 -24 6 -35 15 -29 8 -36 -53 -59 -100 -38 -156
-68 -148 -80 7 -12 74 9 150 47 68 35 78 35 89 1 13 -36 48 -44 36 -8 -11 35
-64 148 -70 148 -2 0 -7 -6 -10 -14z"/>
<path d="M1550 3260 c-10 -19 -13 -19 -40 -5 -36 19 -40 19 -40 -1 0 -9 13
-21 30 -27 22 -8 28 -16 24 -29 -6 -20 6 -24 22 -8 7 7 27 3 64 -14 41 -19 56
-22 62 -13 6 8 -9 20 -47 37 -52 23 -55 27 -49 52 7 33 -10 38 -26 8z"/>
<path d="M1487 3102 c-20 -22 -22 -63 -5 -80 9 -9 8 -12 -5 -12 -9 0 -17 -6
-17 -13 0 -19 132 -50 142 -34 5 8 -7 16 -37 25 -55 16 -82 50 -65 81 13 25
15 25 71 6 42 -15 69 -14 69 3 0 6 -113 42 -133 42 -2 0 -11 -8 -20 -18z"/>
<path d="M3515 3025 c-14 -13 -25 -33 -25 -44 0 -27 21 -72 32 -69 11 4 11 8
2 42 -3 14 -2 32 4 42 8 14 15 7 43 -39 19 -31 37 -57 41 -57 29 -1 51 84 30
116 -26 39 -93 44 -127 9z m93 -11 c24 -17 28 -64 6 -71 -15 -5 -58 63 -49 77
9 14 17 13 43 -6z"/>
<path d="M1455 2896 c-33 -34 -32 -70 4 -107 35 -34 68 -37 105 -8 21 17 26
29 26 66 0 31 -4 43 -12 40 -7 -2 -12 -14 -11 -26 3 -24 -13 -61 -25 -61 -5 0
-15 26 -23 57 -8 31 -20 58 -27 61 -6 2 -23 -8 -37 -22z m50 -60 c13 -43 13
-46 -4 -46 -10 0 -24 7 -31 15 -17 20 -16 65 1 76 17 10 18 10 34 -45z"/>
<path d="M3560 2849 c-13 -6 -28 -15 -32 -22 -11 -17 -10 -65 2 -88 7 -13 7
-19 0 -19 -5 0 -10 -7 -10 -15 0 -12 15 -15 75 -15 60 0 75 3 75 15 0 8 -4 15
-9 15 -5 0 -3 13 5 29 20 40 3 86 -38 100 -36 13 -35 13 -68 0z m72 -36 c20
-18 24 -63 6 -81 -7 -7 -26 -12 -43 -12 -17 0 -36 5 -43 12 -20 20 -14 65 10
82 29 20 47 20 70 -1z"/>
<path d="M1443 2695 c-3 -9 -4 -18 -1 -20 2 -2 36 -1 76 2 51 4 72 10 72 19 0
21 -138 20 -147 -1z"/>
<path d="M1360 2685 c0 -10 7 -15 18 -13 21 4 19 22 -2 26 -10 2 -16 -3 -16
-13z"/>
<path d="M3517 2626 c-6 -15 12 -26 43 -26 11 0 32 -11 47 -24 23 -21 26 -28
17 -43 -12 -19 -23 -20 -91 -8 -35 6 -43 5 -43 -8 0 -9 13 -17 33 -21 46 -9
77 -33 77 -61 0 -39 -15 -40 -122 -9 -11 3 -18 0 -18 -9 0 -9 24 -20 65 -32
79 -21 98 -12 94 45 -2 25 3 43 14 54 20 20 22 67 5 84 -9 9 -8 12 6 12 31 0
11 24 -30 36 -83 23 -92 24 -97 10z"/>
<path d="M1459 2586 c14 -15 19 -26 12 -31 -27 -16 -9 -27 37 -21 88 12 101
17 96 31 -4 10 -18 12 -54 8 -40 -5 -51 -2 -69 16 -29 29 -50 27 -22 -3z"/>
<path d="M1516 2469 c-34 -27 -35 -77 -3 -115 28 -32 72 -36 111 -10 21 13 26
24 26 57 0 76 -75 115 -134 68z m99 -33 c17 -26 11 -50 -19 -75 -22 -18 -60
-6 -73 22 -28 60 56 108 92 53z"/>
<path d="M3438 2286 c46 -52 42 -60 -25 -51 l-56 7 24 -30 c13 -17 35 -47 49
-66 14 -20 28 -36 33 -36 13 0 7 37 -9 50 -8 8 -20 22 -25 32 -10 18 -7 19 38
18 65 -2 71 -1 51 10 -9 6 -27 25 -39 42 l-23 31 57 -6 c33 -3 59 -1 63 4 9
16 5 17 -86 25 l-85 7 33 -37z"/>
<path d="M1617 2284 c-3 -4 1 -20 9 -36 20 -38 41 -24 23 15 -12 27 -20 32
-32 21z"/>
<path d="M1625 2145 c-110 -75 -124 -88 -107 -99 10 -6 233 145 233 159 1 22
-21 11 -126 -60z"/>
<path d="M1737 2104 c-50 -40 -64 -64 -38 -64 16 0 121 92 115 101 -9 15 -16
11 -77 -37z"/>
<path d="M3271 2114 c-24 -20 -31 -34 -31 -60 0 -45 37 -84 80 -84 73 0 111
104 54 149 -36 28 -66 26 -103 -5z m89 -24 c24 -24 25 -38 4 -68 -29 -42 -94
-16 -94 39 0 47 54 65 90 29z"/>
<path d="M1805 2036 c-48 -55 -55 -71 -32 -71 6 0 17 -12 24 -27 23 -53 90
-61 133 -16 39 42 17 111 -39 123 -19 4 -28 11 -25 20 3 7 1 16 -5 19 -5 4
-31 -18 -56 -48z m108 -39 c18 -56 -46 -102 -87 -61 -37 36 -5 97 48 92 22 -2
32 -10 39 -31z"/>
<path d="M1632 2014 c1 -9 9 -19 16 -22 9 -3 13 2 10 14 -1 9 -9 19 -16 22 -9
3 -13 -2 -10 -14z"/>
<path d="M3164 2005 c-3 -8 6 -29 20 -46 28 -33 32 -50 16 -80 -13 -23 -2 -49
11 -28 5 8 9 25 9 38 0 19 3 21 15 11 8 -6 19 -9 25 -5 9 6 -73 125 -86 125
-2 0 -7 -7 -10 -15z"/>
<path d="M2000 1890 c-27 -43 -36 -49 -56 -44 -28 7 -31 -3 -7 -21 16 -12 16
-14 -1 -40 -15 -22 -16 -29 -5 -36 10 -6 18 0 27 16 7 14 21 25 32 25 10 0 22
5 25 10 3 6 1 10 -4 10 -17 0 -13 16 18 69 27 45 30 61 10 61 -4 0 -21 -22
-39 -50z"/>
<path d="M3054 1929 c-3 -6 -1 -16 5 -22 11 -11 16 -57 5 -57 -3 0 -23 10 -44
22 -31 18 -42 20 -51 11 -10 -10 -2 -17 35 -33 49 -21 50 -22 29 -76 -2 -7 0
-15 5 -18 6 -3 18 14 28 39 9 25 20 45 23 45 4 0 26 -36 50 -80 23 -44 46 -80
51 -80 19 0 19 20 1 52 -41 70 -82 144 -98 176 -18 34 -27 39 -39 21z"/>
<path d="M2126 1865 c4 -8 16 -15 28 -15 22 0 46 -17 46 -32 0 -4 -29 -8 -65
-8 -61 0 -65 -1 -65 -23 0 -41 36 -68 83 -65 37 3 44 8 61 39 17 31 18 40 7
66 -13 31 -47 53 -81 53 -13 0 -18 -5 -14 -15z m64 -95 c-11 -21 -52 -36 -69
-25 -6 3 -16 15 -21 26 -10 18 -7 19 45 19 52 0 55 -1 45 -20z"/>
<path d="M2830 1832 c-28 -23 -19 -43 10 -24 23 14 56 16 64 3 3 -5 -7 -17
-22 -26 -15 -10 -37 -27 -49 -38 -22 -19 -22 -22 -6 -39 40 -45 133 -3 133 60
0 65 -80 104 -130 64z m100 -66 c0 -29 -24 -56 -50 -56 -34 0 -34 22 1 51 42
35 49 36 49 5z"/>
<path d="M2337 1796 c-45 -16 -63 -37 -77 -88 -12 -43 -5 -82 23 -120 23 -31
53 -44 119 -54 l47 -6 5 33 c3 19 12 76 21 127 8 50 15 94 15 96 0 4 -25 10
-87 21 -16 2 -45 -2 -66 -9z m114 -32 c7 -4 -25 -191 -34 -200 -11 -11 -84 17
-107 41 -44 47 -26 129 34 160 27 13 84 13 107 -1z"/>
<path d="M2718 1757 c4 -49 2 -56 -22 -74 -29 -23 -33 -33 -12 -33 8 0 21 9
29 20 12 18 15 18 20 5 4 -8 13 -15 20 -15 12 0 13 10 5 53 -14 86 -18 97 -32
97 -9 0 -12 -14 -8 -53z"/>
<path d="M2595 1781 c-3 -5 -1 -12 5 -16 12 -7 30 2 30 16 0 12 -27 12 -35 0z"/>
</g>
</svg>
