<?xml version="1.0" standalone="no"?>
<!DOCTYPE svg PUBLIC "-//W3C//DTD SVG 20010904//EN"
 "http://www.w3.org/TR/2001/REC-SVG-20010904/DTD/svg10.dtd">
<svg version="1.0" xmlns="http://www.w3.org/2000/svg"
 width="1080.000000pt" height="1080.000000pt" viewBox="0 0 1080.000000 1080.000000"
 preserveAspectRatio="xMidYMid meet">
<metadata>
Created by potrace 1.16, written by Peter Selinger 2001-2019
</metadata>
<g transform="translate(0.000000,1080.000000) scale(0.100000,-0.100000)"
fill="#000000" stroke="none">
<path d="M4914 10612 c-220 -65 -355 -253 -357 -497 -1 -113 16 -185 66 -280
126 -236 444 -326 699 -196 94 48 98 55 58 119 -31 51 -33 52 -54 37 -47 -35
-133 -68 -201 -78 -162 -24 -310 53 -382 198 -55 110 -57 262 -5 367 38 78
109 150 182 186 48 23 67 27 145 27 74 0 101 -5 153 -26 l62 -27 16 57 c9 31
19 61 21 68 3 6 -21 21 -54 33 -81 32 -261 38 -349 12z"/>
<path d="M5845 10596 c-118 -37 -181 -107 -200 -224 -20 -120 43 -206 227
-310 172 -96 205 -136 198 -237 -10 -150 -230 -181 -412 -59 -29 20 -55 36
-59 37 -4 1 -22 -18 -39 -42 -40 -54 -37 -60 50 -113 95 -57 186 -83 295 -82
78 0 98 3 147 27 190 93 226 344 69 479 -21 18 -85 58 -142 88 -57 30 -123 73
-146 96 -40 37 -43 45 -43 91 0 139 156 178 347 87 39 -19 73 -34 76 -34 10 0
58 83 54 94 -8 21 -123 76 -203 96 -87 23 -160 25 -219 6z"/>
<path d="M6730 10421 c-94 -29 -158 -92 -185 -184 -18 -61 -18 -90 -1 -140 24
-65 58 -105 169 -198 129 -109 162 -153 161 -219 -1 -97 -69 -155 -180 -153
-80 1 -157 38 -237 113 l-62 58 -43 -38 c-23 -21 -42 -42 -42 -48 0 -15 106
-109 157 -139 129 -76 281 -97 379 -54 109 48 174 151 174 274 0 111 -38 166
-207 301 -102 82 -128 118 -128 183 0 45 4 57 31 83 17 17 47 35 67 40 75 17
196 -26 279 -100 l45 -39 41 42 42 43 -37 36 c-112 109 -309 173 -423 139z"/>
<path d="M2463 9737 c-29 -17 -53 -35 -53 -38 0 -4 113 -191 252 -415 138
-225 259 -421 268 -436 l17 -28 279 172 c153 94 281 172 282 174 9 7 -64 114
-75 110 -6 -3 -107 -64 -223 -135 -116 -72 -212 -131 -214 -131 -2 0 -108 171
-237 380 -128 209 -236 380 -239 380 -3 -1 -29 -15 -57 -33z"/>
<path d="M3970 9493 c-26 -33 -21 -79 11 -105 71 -59 163 47 96 110 -33 31
-80 29 -107 -5z"/>
<path d="M8395 9168 c-159 -176 -315 -347 -347 -382 l-56 -62 52 -46 52 -46
124 137 c68 75 126 137 129 138 3 1 36 -26 74 -60 l67 -62 -38 -222 -39 -223
59 -51 c32 -28 60 -50 62 -48 1 2 19 101 40 219 21 118 40 225 43 236 4 20 8
21 50 12 119 -26 277 71 340 209 22 47 25 65 21 127 -7 111 -45 173 -190 308
-64 61 -125 116 -135 123 -16 11 -50 -22 -308 -307z m402 39 c63 -64 83 -92
88 -120 23 -121 -70 -236 -190 -237 -59 0 -92 18 -187 102 l-68 60 127 139
c69 76 132 139 138 139 6 0 48 -37 92 -83z"/>
<path d="M2004 9415 c22 -106 145 -829 141 -833 -2 -3 -191 26 -420 62 -228
37 -420 66 -425 64 -5 -2 159 -169 366 -372 l376 -369 44 44 c24 24 44 46 44
49 0 3 -101 107 -225 230 -123 123 -223 225 -222 226 1 1 139 -19 307 -45 231
-36 306 -44 308 -35 2 7 -22 151 -53 320 -30 169 -54 308 -52 310 1 2 106
-100 232 -226 127 -127 233 -230 237 -230 4 0 27 21 52 48 l45 47 -342 336
c-188 184 -359 351 -381 369 l-39 34 7 -29z"/>
<path d="M7446 9188 c-53 -48 -25 -128 44 -128 41 0 70 31 70 75 0 68 -64 97
-114 53z"/>
<path d="M8897 8405 c-181 -67 -259 -260 -175 -435 28 -57 111 -139 166 -164
48 -22 52 -19 75 41 l16 42 -54 30 c-60 34 -100 85 -110 143 -8 41 2 98 16 98
5 0 97 -59 205 -131 108 -72 202 -128 209 -125 7 2 28 35 46 72 63 128 37 260
-72 358 -27 25 -75 54 -105 65 -64 24 -160 27 -217 6z m217 -123 c76 -44 112
-134 83 -205 l-16 -37 -148 95 c-81 53 -149 99 -151 104 -4 12 62 52 102 62
40 10 93 2 130 -19z"/>
<path d="M1066 8348 c-8 -13 -87 -144 -175 -293 l-160 -270 52 -32 c29 -18 54
-33 57 -33 3 0 36 51 74 114 l68 115 46 -29 c135 -81 724 -430 727 -430 2 0
18 25 36 56 26 47 29 58 18 68 -8 7 -179 111 -381 231 -203 120 -368 221 -368
226 0 4 27 53 61 110 34 56 63 108 66 115 3 9 -85 74 -102 74 -2 0 -11 -10
-19 -22z"/>
<path d="M9344 7800 c-140 -29 -253 -140 -271 -265 -15 -116 57 -247 166 -302
l64 -32 -36 -17 c-21 -10 -37 -22 -37 -26 0 -16 50 -108 59 -108 8 0 482 241
510 259 11 7 8 18 -14 60 -16 28 -31 51 -35 51 -4 0 -24 -7 -43 -15 l-36 -15
14 41 c47 131 -27 292 -159 349 -52 23 -129 31 -182 20z m156 -149 c82 -43
126 -147 100 -234 -16 -55 -42 -83 -112 -118 -100 -50 -181 -34 -245 49 -101
132 0 321 172 322 30 0 64 -7 85 -19z"/>
<path d="M561 7426 c-17 -44 -34 -106 -30 -110 2 -2 95 -34 207 -70 111 -37
202 -73 202 -79 0 -10 -159 -498 -165 -505 -1 -1 -93 30 -205 68 -112 39 -209
69 -215 67 -11 -5 -50 -115 -43 -123 7 -6 950 -324 963 -324 11 0 60 119 52
125 -1 1 -94 33 -207 70 -113 37 -208 69 -212 71 -8 5 161 514 171 514 3 0
101 -31 216 -70 115 -38 209 -69 210 -67 1 1 11 30 23 64 l20 62 -91 31 c-51
17 -271 92 -490 165 -395 133 -398 134 -406 111z"/>
<path d="M9593 7010 c-72 -29 -145 -97 -173 -162 -32 -74 -26 -199 14 -278 25
-50 91 -130 107 -130 3 0 19 18 34 41 l27 41 -25 27 c-80 85 -85 199 -11 281
96 106 265 87 324 -35 19 -39 22 -58 18 -114 l-5 -68 45 -17 c32 -12 49 -13
56 -6 19 19 13 189 -8 244 -23 60 -83 128 -145 164 -62 36 -182 42 -258 12z"/>
<path d="M10045 6443 c-11 -2 -29 -6 -41 -8 -20 -4 -21 -8 -11 -55 5 -28 8
-52 6 -54 -2 -2 -107 -22 -234 -45 -126 -23 -231 -44 -233 -45 -5 -6 10 -103
18 -116 7 -11 54 -5 237 28 125 23 231 42 234 42 4 0 12 -30 19 -67 6 -38 13
-73 15 -79 2 -8 18 -9 54 -1 l51 10 -6 36 c-3 20 -10 54 -14 76 -5 22 -7 41
-5 43 2 3 58 14 125 27 66 12 122 24 124 26 3 4 -14 120 -20 127 -1 2 -51 -6
-110 -17 -155 -30 -150 -31 -158 29 -7 50 -9 52 -51 43z"/>
<path d="M1085 5765 c-14 -13 -25 -36 -25 -50 0 -33 42 -75 75 -75 35 0 75 42
75 78 0 36 -37 72 -74 72 -15 0 -37 -10 -51 -25z"/>
<path d="M9631 5434 c-12 -15 -21 -38 -21 -51 0 -32 42 -73 75 -73 35 0 75 42
75 78 0 65 -89 97 -129 46z"/>
<path d="M652 5093 l-34 -4 4 -82 3 -81 -125 -14 c-68 -7 -125 -14 -126 -15
-1 -1 1 -29 4 -62 l7 -60 50 0 c28 0 87 4 133 9 l82 8 0 -38 c0 -56 10 -66 61
-62 l44 3 0 55 0 55 235 26 235 25 -2 63 c-1 35 -3 65 -6 67 -2 2 -109 -7
-237 -21 -254 -28 -249 -29 -250 30 -1 63 -12 105 -29 103 -9 0 -31 -3 -49 -5z"/>
<path d="M10447 4553 c-8 -38 -21 -95 -28 -128 -7 -33 -13 -61 -14 -63 -2 -1
-194 40 -428 93 -234 52 -432 95 -440 95 -18 0 -44 -119 -28 -129 6 -4 202
-49 436 -101 262 -58 425 -99 425 -106 0 -6 -11 -61 -25 -122 -14 -61 -25
-117 -25 -126 0 -13 72 -36 113 -36 9 0 38 112 86 331 40 181 72 331 70 333
-5 3 -108 26 -119 26 -4 0 -15 -30 -23 -67z"/>
<path d="M960 4595 c-106 -30 -183 -93 -223 -184 -29 -66 -21 -178 18 -250 27
-49 106 -131 126 -131 24 0 4 -18 -32 -30 -39 -13 -40 -15 -34 -48 3 -19 10
-44 15 -57 l9 -23 148 39 c81 21 272 71 423 111 151 39 277 73 279 74 5 4 -18
96 -29 113 -7 12 -36 7 -170 -28 -89 -23 -168 -45 -175 -47 -9 -4 -6 10 8 38
31 63 34 158 8 229 -59 155 -216 237 -371 194z m176 -146 c100 -48 142 -174
93 -275 -23 -49 -67 -80 -140 -99 -139 -37 -265 79 -245 225 9 64 45 113 107
144 65 32 127 34 185 5z"/>
<path d="M9470 3981 c-152 -50 -243 -224 -197 -373 8 -27 14 -48 12 -48 -1 0
-19 7 -40 16 -20 8 -38 14 -40 12 -7 -9 -45 -102 -45 -112 0 -8 433 -199 530
-234 9 -3 50 81 50 102 0 7 -16 20 -36 30 l-37 17 60 28 c102 49 157 142 156
266 -1 116 -61 203 -178 261 -59 29 -88 37 -142 40 -37 2 -79 0 -93 -5z m151
-142 c158 -53 189 -246 57 -352 -52 -41 -116 -47 -189 -16 -69 28 -104 61
-125 116 -57 149 101 304 257 252z"/>
<path d="M1217 3740 c-143 -60 -261 -111 -264 -114 -8 -8 38 -116 49 -116 12
0 521 210 530 219 10 9 -34 121 -47 120 -5 -1 -126 -50 -268 -109z"/>
<path d="M727 3550 c-36 -29 -37 -81 -2 -115 47 -48 119 -19 119 49 0 67 -67
105 -117 66z"/>
<path d="M1567 3324 c-186 -102 -260 -104 -352 -9 l-51 52 -52 -26 c-29 -14
-52 -31 -52 -38 0 -37 156 -123 224 -123 15 0 4 -11 -35 -38 l-57 -37 27 -52
26 -52 160 85 c88 47 206 110 262 140 l101 54 -30 55 c-16 30 -35 55 -41 54
-7 0 -65 -30 -130 -65z"/>
<path d="M9020 3249 c-17 -29 -28 -55 -23 -59 4 -4 109 -67 233 -140 124 -73
235 -139 246 -147 21 -13 24 -11 54 42 18 32 29 60 24 65 -15 14 -484 290
-493 290 -5 0 -23 -23 -41 -51z"/>
<path d="M1771 3093 c-16 -55 -15 -58 32 -87 69 -44 92 -86 92 -171 0 -94 -29
-141 -110 -180 -126 -62 -247 3 -277 148 l-12 57 -54 0 -55 0 6 -51 c13 -109
94 -227 192 -277 40 -21 65 -26 125 -26 93 -1 163 28 232 97 114 115 115 286
2 424 -34 41 -124 103 -151 103 -7 0 -17 -17 -22 -37z"/>
<path d="M8838 2967 l-37 -53 450 -318 c247 -174 454 -314 459 -311 20 13 72
97 64 105 -15 13 -892 630 -895 630 -2 0 -21 -24 -41 -53z"/>
<path d="M9662 2887 c-58 -62 3 -151 83 -121 23 9 48 62 41 89 -14 57 -84 75
-124 32z"/>
<path d="M8557 2634 c4 -11 42 -100 84 -199 43 -99 76 -181 75 -182 -1 -2 -96
29 -210 67 -131 43 -206 64 -203 56 3 -8 63 -150 133 -315 l127 -302 44 43
c23 23 43 46 43 51 0 6 -34 86 -76 179 -42 93 -74 171 -72 174 3 2 86 -26 186
-63 l182 -66 35 39 c19 21 34 42 35 45 0 4 -20 12 -45 19 -24 7 -48 18 -53 24
-15 20 -105 236 -100 241 2 3 42 -9 89 -26 46 -17 125 -46 176 -64 l91 -33 47
48 46 47 -303 111 c-167 61 -311 114 -321 117 -14 6 -16 4 -10 -11z"/>
<path d="M2160 2590 c-48 -9 -72 -23 -110 -66 -30 -35 -32 -41 -28 -98 3 -40
16 -86 36 -133 37 -84 40 -115 11 -144 -46 -46 -131 9 -154 97 -7 27 -15 48
-19 47 -3 -2 -18 -3 -33 -3 -52 0 -57 -11 -38 -75 22 -75 117 -177 183 -195
111 -29 216 49 216 159 0 31 -13 74 -37 130 -43 98 -44 109 -16 145 32 41 72
35 124 -16 34 -35 45 -54 55 -101 l12 -58 41 3 c41 3 42 4 45 41 6 70 -66 189
-141 236 -42 26 -103 39 -147 31z"/>
<path d="M2420 2023 c-96 -125 -176 -230 -178 -233 -1 -4 18 -24 43 -45 l46
-38 33 32 33 32 5 -50 c13 -138 178 -259 322 -237 108 17 225 115 265 221 41
109 22 209 -55 294 -61 68 -114 94 -206 99 l-78 5 26 34 c14 19 24 35 23 37
-2 1 -25 19 -50 39 -25 20 -48 37 -50 37 -2 0 -83 -102 -179 -227z m328 -18
c137 -58 164 -241 49 -342 -130 -114 -327 -23 -327 152 0 46 5 60 42 110 24
31 59 65 78 76 43 22 109 24 158 4z"/>
<path d="M7996 2085 c-25 -20 -46 -40 -46 -45 0 -8 311 -413 345 -449 11 -11
21 -7 62 24 26 20 47 42 45 47 -3 11 -351 458 -356 458 -2 0 -24 -16 -50 -35z"/>
<path d="M7737 1891 c-26 -15 -50 -30 -52 -33 -3 -3 33 -69 79 -147 87 -146
105 -196 92 -263 -10 -55 -43 -98 -91 -119 -84 -37 -102 -22 -239 209 -54 89
-99 162 -102 162 -2 0 -29 -14 -60 -31 -52 -30 -54 -33 -41 -53 7 -11 63 -103
122 -204 66 -111 121 -192 139 -205 35 -25 119 -34 169 -18 46 16 123 84 146
130 10 20 22 54 26 76 l7 40 19 -24 c11 -13 24 -31 28 -39 7 -13 13 -13 37 -3
16 6 40 20 53 30 l24 19 -149 251 c-82 138 -151 251 -154 250 -3 0 -26 -13
-53 -28z"/>
<path d="M3160 1509 c-151 -105 -276 -193 -278 -197 -1 -4 26 -22 61 -39 l64
-31 157 125 c87 69 159 123 160 121 2 -1 -1 -90 -6 -197 -5 -106 -7 -200 -4
-207 4 -11 115 -74 131 -74 7 0 4 422 -4 572 l-6 117 -275 -190z"/>
<path d="M8435 1495 c-47 -46 -17 -125 49 -125 37 0 76 41 76 80 0 65 -77 93
-125 45z"/>
<path d="M6945 1496 c-81 -25 -153 -83 -187 -150 l-21 -41 -14 39 c-7 22 -15
41 -17 44 -3 2 -32 -6 -66 -19 -47 -17 -60 -26 -55 -38 4 -9 90 -241 192 -516
102 -275 187 -502 188 -503 3 -3 125 38 125 43 0 1 -45 122 -100 270 -55 148
-100 272 -100 276 0 5 16 1 35 -7 49 -20 155 -18 215 5 140 53 220 193 191
331 -44 203 -214 320 -386 266z m163 -149 c58 -38 96 -119 90 -192 -11 -137
-158 -224 -283 -166 -54 25 -79 55 -105 125 -39 103 -5 192 94 241 67 35 145
32 204 -8z"/>
<path d="M3716 1223 c-49 -148 -90 -273 -93 -279 -4 -12 102 -48 116 -39 5 3
15 21 21 41 l12 36 18 -38 c62 -140 240 -200 382 -131 102 50 172 157 185 283
21 203 -190 364 -390 296 l-59 -19 6 21 c18 65 21 61 -37 79 -29 9 -58 17 -63
17 -6 0 -50 -120 -98 -267z m393 67 c125 -63 148 -226 47 -326 -47 -47 -109
-69 -165 -59 -86 16 -158 86 -168 163 -7 50 28 160 60 190 59 55 155 69 226
32z"/>
<path d="M4813 1401 c-106 -36 -181 -110 -222 -217 -28 -73 -171 -927 -157
-936 14 -9 115 -22 122 -16 2 3 38 201 79 441 40 239 80 450 88 469 35 82 111
137 197 141 56 2 55 2 65 80 l7 57 -63 0 c-35 -1 -87 -9 -116 -19z"/>
<path d="M5935 1205 c-14 -13 -25 -36 -25 -50 0 -35 42 -75 79 -75 35 0 71 39
71 77 0 32 -42 73 -75 73 -14 0 -37 -11 -50 -25z"/>
</g>
</svg>
