<?xml version="1.0" standalone="no"?>
<!DOCTYPE svg PUBLIC "-//W3C//DTD SVG 20010904//EN"
 "http://www.w3.org/TR/2001/REC-SVG-20010904/DTD/svg10.dtd">
<svg version="1.0" xmlns="http://www.w3.org/2000/svg"
 width="500.000000pt" height="500.000000pt" viewBox="0 0 500.000000 500.000000"
 preserveAspectRatio="xMidYMid meet">

<g transform="translate(0.000000,500.000000) scale(0.100000,-0.100000)"
fill="#000000" stroke="none">
<path d="M1926 4135 c-114 -40 -157 -159 -100 -274 23 -45 35 -57 78 -77 66
-31 110 -30 174 2 62 31 82 58 53 73 -14 8 -22 6 -36 -9 -10 -11 -37 -27 -60
-36 -35 -13 -50 -14 -77 -5 -67 23 -108 80 -108 152 0 80 59 139 140 139 36 0
40 2 40 25 0 22 -4 25 -32 25 -18 -1 -50 -7 -72 -15z"/>
<path d="M2445 4064 c-46 -23 -65 -53 -65 -105 0 -38 6 -53 29 -78 24 -26 36
-31 76 -31 57 0 91 16 75 34 -7 9 -25 12 -53 9 -27 -3 -49 0 -61 10 -19 14
-19 14 0 24 10 6 49 21 87 33 37 13 67 28 67 34 0 33 -66 86 -107 86 -10 0
-31 -7 -48 -16z m89 -40 c22 -21 15 -29 -50 -53 -68 -26 -64 -26 -64 4 0 53
77 86 114 49z"/>
<path d="M3052 4042 c-6 -15 -13 -35 -16 -46 -4 -12 -13 -17 -26 -13 -27 7
-37 -13 -15 -29 17 -13 17 -16 -4 -66 -31 -79 -36 -114 -17 -121 13 -5 22 4
36 39 11 25 20 50 20 54 0 5 5 21 12 35 9 21 18 25 41 23 38 -4 47 18 14 33
-24 11 -24 12 -11 55 12 40 11 45 -5 54 -16 8 -21 5 -29 -18z"/>
<path d="M2258 4030 c-28 -28 -30 -29 -35 -10 -6 21 -11 24 -29 12 -9 -5 -8
-26 2 -82 22 -118 22 -120 45 -120 22 0 22 -2 2 102 -4 22 2 35 31 64 35 35
47 64 25 64 -6 0 -24 -14 -41 -30z"/>
<path d="M2699 4035 c-30 -16 -49 -60 -49 -112 0 -25 8 -43 30 -65 26 -26 36
-29 73 -26 23 3 50 8 60 13 15 6 18 4 15 -11 -2 -13 3 -19 17 -19 17 0 23 13
40 98 17 86 18 99 5 107 -21 14 -30 12 -30 -5 0 -21 -5 -19 -34 10 -29 29 -84
33 -127 10z m123 -42 c26 -24 30 -48 14 -87 -24 -59 -102 -62 -131 -6 -22 42
-19 58 15 92 25 24 36 29 58 23 15 -3 35 -14 44 -22z"/>
<path d="M3225 3980 c-11 -17 18 -42 39 -34 9 4 16 14 14 23 -4 19 -43 27 -53
11z"/>
<path d="M3148 3818 c-24 -46 -45 -87 -47 -92 -3 -8 17 -26 30 -26 11 0 100
181 94 191 -15 24 -38 2 -77 -73z"/>
<path d="M3299 3848 c-3 -11 -25 -234 -23 -236 2 -3 192 95 203 105 3 2 -2 11
-11 20 -15 14 -19 14 -45 -4 -15 -11 -35 -23 -43 -26 -8 -4 -26 -15 -39 -24
l-24 -18 6 40 c21 118 21 122 -2 134 -11 7 -21 10 -22 9z"/>
<path d="M1342 3820 c-12 -20 -7 -27 57 -93 l70 -72 -37 -18 c-94 -45 -102
-148 -16 -204 45 -29 92 -22 130 20 19 20 34 46 34 58 0 15 5 19 19 14 10 -3
23 0 29 7 7 10 -26 50 -132 161 -134 140 -142 147 -154 127z m176 -216 c45
-31 48 -87 7 -127 -43 -44 -125 0 -125 68 0 29 6 39 33 55 39 24 56 25 85 4z"/>
<path d="M3471 3615 c-44 -37 -57 -85 -35 -130 17 -37 58 -75 79 -75 11 0 31
31 23 34 -45 18 -63 35 -66 64 -2 18 -1 32 3 32 3 0 37 -16 75 -35 85 -43 100
-44 102 -7 3 58 -4 78 -37 110 -45 42 -99 44 -144 7z m134 -44 c8 -17 12 -37
9 -45 -5 -13 -14 -11 -62 10 -68 30 -68 30 -52 49 7 9 29 15 51 15 32 0 41 -5
54 -29z"/>
<path d="M1660 3610 c0 -15 7 -20 25 -20 18 0 25 5 25 20 0 15 -7 20 -25 20
-18 0 -25 -5 -25 -20z"/>
<path d="M1254 3430 c-58 -23 -82 -107 -49 -171 29 -54 113 -67 164 -24 16 14
32 35 35 45 4 11 9 29 12 40 4 15 1 20 -13 20 -13 0 -22 -11 -28 -32 -10 -32
-57 -69 -71 -55 -4 3 3 43 16 88 20 68 21 82 9 90 -17 11 -47 11 -75 -1z m46
-40 c0 -20 -23 -115 -29 -123 -4 -4 -17 2 -29 13 -31 29 -29 73 4 99 28 22 54
28 54 11z"/>
<path d="M3583 3363 c-7 -3 -13 -13 -13 -24 0 -23 35 -26 43 -5 7 17 -13 35
-30 29z"/>
<path d="M4018 3289 c-16 -9 -16 -12 2 -55 l20 -45 -23 -8 c-147 -59 -281
-123 -279 -133 8 -30 26 -26 168 36 l149 64 20 -42 c11 -22 20 -43 22 -44 1
-2 10 -1 21 2 19 6 19 11 -17 94 -57 133 -63 142 -83 131z"/>
<path d="M1108 3204 c-8 -17 -16 -23 -27 -18 -67 28 -72 29 -81 14 -15 -23
-13 -26 31 -43 34 -13 40 -20 36 -37 -7 -27 13 -38 29 -16 11 16 18 15 90 -18
42 -20 80 -36 84 -36 4 0 10 9 13 19 4 16 -10 26 -75 56 -55 26 -77 42 -74 51
3 8 9 20 12 28 3 7 -2 16 -11 20 -10 4 -19 -3 -27 -20z"/>
<path d="M1023 2988 c-31 -34 -37 -64 -19 -100 20 -39 20 -37 -3 -31 -11 3
-21 -2 -25 -13 -3 -9 -5 -18 -4 -20 2 -1 48 -14 102 -29 79 -21 101 -23 107
-13 15 23 10 27 -61 48 -72 21 -90 38 -90 83 0 45 22 52 98 32 37 -10 72 -20
78 -22 6 -2 14 5 17 16 4 19 -4 24 -77 46 -100 30 -98 30 -123 3z"/>
<path d="M3874 2900 c-30 -12 -54 -54 -54 -95 0 -47 25 -96 45 -89 18 7 18 4
-1 44 -17 33 -11 80 11 86 6 2 29 -30 53 -71 23 -41 47 -75 53 -75 5 0 21 11
34 25 44 44 29 142 -26 171 -31 15 -82 17 -115 4z m113 -52 c13 -12 23 -31 23
-43 0 -22 -25 -64 -33 -55 -19 23 -67 101 -67 109 0 19 53 12 77 -11z"/>
<path d="M995 2716 c-79 -34 -72 -162 11 -201 74 -35 154 17 154 101 0 54 -8
74 -26 67 -11 -4 -13 -15 -8 -39 6 -33 -15 -84 -35 -84 -4 0 -18 38 -31 85
-13 47 -26 85 -29 85 -3 -1 -20 -7 -36 -14z m46 -104 c16 -61 16 -62 -4 -62
-29 0 -67 39 -67 68 0 28 28 64 44 59 6 -2 18 -31 27 -65z"/>
<path d="M3881 2614 c-27 -22 -31 -33 -31 -73 0 -26 7 -56 16 -69 14 -20 14
-22 -1 -22 -11 0 -15 -7 -13 -22 2 -13 9 -23 16 -22 6 1 55 2 107 3 80 1 95 4
95 17 0 9 -9 18 -20 21 l-21 6 21 19 c32 30 28 98 -9 137 -25 27 -36 31 -79
31 -40 0 -57 -6 -81 -26z m136 -40 c21 -21 24 -32 19 -62 -7 -45 -28 -62 -77
-62 -63 0 -94 52 -65 108 26 50 82 57 123 16z"/>
<path d="M1020 2431 c-41 -3 -74 -9 -72 -13 1 -5 2 -14 2 -22 0 -11 13 -13 63
-10 129 10 147 14 147 35 0 21 3 21 -140 10z"/>
<path d="M845 2420 c-8 -12 3 -50 14 -50 5 0 14 7 21 15 10 12 10 18 0 30 -14
17 -26 19 -35 5z"/>
<path d="M3850 2326 c0 -9 -1 -19 -2 -23 -2 -3 22 -12 52 -19 67 -15 114 -60
101 -96 -11 -30 -45 -34 -112 -14 -67 20 -76 20 -82 -3 -4 -16 3 -21 41 -31
88 -22 130 -58 117 -99 -9 -29 -30 -32 -102 -15 -70 16 -93 14 -93 -10 0 -14
117 -48 168 -48 51 0 75 61 48 123 -5 12 -1 18 13 22 36 9 47 63 25 121 -4 10
-1 16 9 16 8 0 17 9 20 19 4 17 -6 22 -77 40 -44 11 -91 24 -103 27 -17 5 -23
2 -23 -10z"/>
<path d="M968 2302 c-25 -5 -22 -16 12 -50 27 -28 28 -30 10 -35 -12 -3 -20
-14 -20 -25 0 -19 2 -19 73 -6 39 8 88 17 108 20 31 5 35 9 31 29 -3 20 -7 22
-40 14 -66 -15 -107 -11 -129 14 -11 12 -22 27 -24 32 -2 6 -12 9 -21 7z"/>
<path d="M1069 2107 c-60 -40 -65 -123 -9 -178 23 -23 37 -29 73 -29 113 0
155 130 66 205 -38 32 -85 33 -130 2z m116 -42 c34 -33 33 -77 -1 -104 -32
-25 -72 -27 -100 -3 -30 25 -36 49 -19 82 28 55 80 66 120 25z"/>
<path d="M3706 1889 c4 -8 22 -32 39 -54 55 -70 56 -68 -29 -60 -42 4 -76 4
-76 0 0 -15 133 -184 141 -179 18 11 8 37 -32 87 -22 28 -37 53 -32 54 5 2 38
-1 73 -6 46 -6 67 -5 72 3 12 17 9 26 -6 26 -14 0 -76 67 -76 82 0 4 30 4 68
1 53 -4 70 -2 80 10 14 16 0 21 -113 32 -33 3 -73 9 -89 12 -22 4 -27 2 -20
-8z"/>
<path d="M1195 1841 c-8 -14 26 -81 41 -81 23 0 24 18 3 54 -21 36 -33 44 -44
27z"/>
<path d="M1319 1722 c-29 -21 -102 -71 -161 -111 -60 -41 -108 -76 -108 -80 0
-3 4 -12 9 -20 7 -10 46 12 175 99 91 62 166 116 166 120 0 4 -6 12 -13 18
-10 8 -27 2 -68 -26z"/>
<path d="M1372 1595 c-71 -59 -80 -70 -71 -86 9 -19 14 -17 68 28 32 26 70 57
85 68 24 18 26 22 14 38 -13 17 -19 14 -96 -48z"/>
<path d="M3505 1607 c-37 -32 -40 -39 -40 -86 0 -43 4 -55 31 -82 26 -26 39
-31 80 -31 43 0 52 4 81 36 68 74 30 182 -67 193 -40 4 -49 1 -85 -30z m120
-32 c52 -51 24 -125 -47 -125 -36 0 -78 40 -78 75 0 33 42 75 75 75 14 0 37
-11 50 -25z"/>
<path d="M1469 1508 c-70 -79 -82 -96 -73 -109 3 -6 14 -9 25 -6 13 4 19 -2
24 -24 9 -42 58 -79 105 -79 30 0 46 7 74 34 31 29 36 39 36 80 0 39 -5 53
-29 77 -20 20 -39 29 -61 29 -26 0 -30 3 -25 19 3 10 -1 23 -8 29 -10 9 -25
-2 -68 -50z m126 -43 c29 -28 31 -54 10 -94 -35 -68 -145 -34 -145 45 0 24 59
74 87 74 13 0 35 -11 48 -25z"/>
<path d="M1214 1469 c-10 -17 23 -46 37 -32 7 7 9 19 6 27 -7 18 -33 21 -43 5z"/>
<path d="M3354 1456 c-3 -8 8 -32 24 -53 41 -52 46 -76 26 -118 -13 -28 -14
-39 -5 -48 17 -16 41 17 41 56 0 29 1 30 19 13 19 -17 41 -15 41 4 0 5 -20 33
-44 63 -24 29 -49 63 -55 75 -13 25 -39 29 -47 8z"/>
<path d="M3211 1357 c-8 -11 -8 -22 3 -47 13 -31 11 -74 -3 -68 -3 2 -29 15
-56 30 -43 22 -54 24 -74 14 -21 -12 -19 -14 48 -47 39 -19 71 -38 71 -42 0
-4 -9 -25 -20 -47 -25 -48 -25 -50 -1 -50 14 0 25 16 41 60 12 33 26 63 31 65
4 3 33 -41 63 -97 73 -137 79 -144 95 -125 10 13 9 23 -7 54 -34 66 -163 298
-171 306 -4 4 -13 2 -20 -6z"/>
<path d="M1733 1293 c-26 -45 -46 -67 -57 -65 -9 1 -23 3 -32 5 -25 3 -28 -20
-5 -28 27 -8 27 -29 0 -66 -11 -16 -17 -33 -14 -39 12 -20 36 -9 56 25 17 28
25 34 44 29 30 -7 42 12 16 26 -20 10 -19 11 8 53 66 101 73 114 55 121 -26
10 -29 8 -71 -61z"/>
<path d="M1907 1260 c3 -13 14 -20 28 -20 26 0 75 -36 75 -54 0 -11 -20 -12
-90 -8 l-90 5 0 -34 c1 -58 48 -99 115 -99 55 0 105 53 105 109 0 70 -51 121
-119 121 -24 0 -28 -3 -24 -20z m91 -134 c-15 -34 -59 -51 -90 -35 -26 13 -38
28 -38 47 0 8 21 12 70 12 l70 0 -12 -24z"/>
<path d="M2932 1229 c-45 -9 -76 -38 -61 -55 9 -11 16 -10 36 6 30 23 52 25
77 7 17 -12 12 -18 -53 -66 -39 -29 -71 -57 -71 -61 0 -20 60 -50 100 -50 34
0 48 6 76 34 41 41 46 92 14 144 -11 17 -21 32 -22 32 -2 0 -17 4 -33 8 -17 5
-45 5 -63 1z m98 -113 c0 -57 -62 -94 -104 -63 -17 12 -14 17 34 55 29 23 57
42 61 42 5 0 9 -15 9 -34z"/>
<path d="M2733 1116 c9 -56 8 -69 -7 -92 -10 -14 -27 -29 -37 -31 -21 -6 -26
-43 -6 -43 16 0 57 37 57 50 0 6 5 10 10 10 6 0 10 -9 10 -20 0 -14 7 -20 21
-20 18 0 20 4 16 33 -3 17 -9 55 -12 82 -11 88 -14 95 -38 95 -23 0 -23 -1
-14 -64z"/>
<path d="M2184 1156 c-17 -8 -44 -31 -60 -51 -23 -31 -29 -50 -32 -106 -4 -56
0 -74 18 -107 27 -47 94 -88 161 -97 24 -4 54 -8 65 -11 20 -4 23 3 39 87 24
131 44 273 40 278 -9 8 -93 20 -145 20 -30 0 -69 -6 -86 -13z m174 -39 c5 -4
1 -56 -9 -122 -26 -176 -19 -164 -81 -154 -29 5 -64 17 -78 27 -80 58 -74 183
10 240 30 20 44 23 92 19 31 -3 61 -7 66 -10z"/>
<path d="M2564 1145 c-4 -9 -2 -21 4 -27 15 -15 44 -1 40 19 -4 23 -36 29 -44
8z"/>
</g>
</svg>
